<svg width="46" height="46" viewBox="0 0 46 46" fill="none" xmlns="http://www.w3.org/2000/svg">
<circle cx="23" cy="23" r="23" fill="#252734"/>
<rect x="11" y="26" width="24" height="9" rx="4.5" fill="#6451E1"/>
<path d="M11.7328 21.4325C10.9881 20.6758 10.9881 19.4489 11.7328 18.6922L18.7446 11.5676C19.4893 10.8109 20.6967 10.8109 21.4415 11.5676C22.1862 12.3243 22.1862 13.5511 21.4415 14.3078L14.4296 21.4325C13.6849 22.1892 12.4775 22.1892 11.7328 21.4325Z" fill="#6451E1"/>
<path d="M11.5585 11.5675C12.3033 10.8108 13.5107 10.8108 14.2554 11.5675L21.2672 18.6922C22.0119 19.4489 22.0119 20.6757 21.2672 21.4324C20.5225 22.1891 19.3151 22.1891 18.5704 21.4324L11.5585 14.3078C10.8138 13.5511 10.8138 12.3242 11.5585 11.5675Z" fill="#6451E1"/>
<rect x="24" y="11" width="11" height="11" rx="5.5" fill="#6451E1"/>
</svg>
