<svg width="92" height="73" fill="none" xmlns="http://www.w3.org/2000/svg"><path d="M10.753 37.393V7.929c0-2.96 2.428-5.358 5.424-5.358h54.23c2.995 0 5.423 2.399 5.423 5.358v7.142M47.807 61.5h-31.63a13.642 13.642 0 01-9.59-3.921 13.31 13.31 0 01-3.972-9.472h39.77" stroke="#6451E1" stroke-width="3.5" stroke-linecap="round" stroke-linejoin="round"/><path clip-rule="evenodd" d="M56.846 29a5 5 0 015-5h22.539a5 5 0 015 5v36.429a5 5 0 01-5 5H61.846a5 5 0 01-5-5V29z" stroke="#6451E1" stroke-width="3.5" stroke-linecap="round" stroke-linejoin="round"/></svg>