<svg width="80" height="75" fill="none" xmlns="http://www.w3.org/2000/svg"><path clip-rule="evenodd" d="M2 3.84a1.5 1.5 0 011.5-1.5h72.56a1.5 1.5 0 011.5 1.5V57a1.5 1.5 0 01-1.5 1.5H3.5A1.5 1.5 0 012 57V3.84zM52.373 72.54H27.187l2.518-14.04h20.15l2.518 14.04v0z" stroke="#6451E1" stroke-width="3.5" stroke-linecap="round" stroke-linejoin="round"/><path d="M19.63 72.54H59.93M62.447 23.4v7.02M52.373 27.559v12.22c-3.432 2.935-7.903 4.6-12.566 4.68-4.679-.086-9.164-1.75-12.62-4.68V27.56" stroke="#6451E1" stroke-width="3.5" stroke-linecap="round" stroke-linejoin="round"/><path clip-rule="evenodd" d="M17.112 23.4l22.668 9.36 22.667-9.36-22.667-9.36-22.668 9.36z" stroke="#6451E1" stroke-width="3.5" stroke-linecap="round" stroke-linejoin="round"/></svg>