<svg width="75" height="75" fill="none" xmlns="http://www.w3.org/2000/svg"><path d="M42.188 70.313l-9.157-7.326a5.116 5.116 0 01-1.78-5.237v0a5.115 5.115 0 017.252-3.334l3.685 1.834V39.844a4.688 4.688 0 014.687-4.688v0a4.688 4.688 0 014.688 4.688v9.375l6.228 1.037a9.375 9.375 0 017.834 9.247v10.81M16.403 18.75h23.438M16.403 28.125h23.438M16.403 37.5h11.72" stroke="#6451E1" stroke-width="3.5" stroke-linecap="round" stroke-linejoin="round"/><path d="M23.438 56.25H7.028a4.688 4.688 0 01-4.687-4.688V9.376a4.688 4.688 0 014.687-4.688h60.938a4.687 4.687 0 014.687 4.688v37.5M58.59 4.688v28.125" stroke="#6451E1" stroke-width="3.5" stroke-linecap="round" stroke-linejoin="round"/></svg>