<svg width="68" height="68" fill="none" xmlns="http://www.w3.org/2000/svg"><path clip-rule="evenodd" d="M26.633 47.432l20.797-20.8A12.892 12.892 0 0064.617 9.447l-4.037 4.046a4.296 4.296 0 01-6.075-6.075L58.54 3.38a12.892 12.892 0 00-17.173 17.187l-20.803 20.8A12.892 12.892 0 003.377 58.552l4.038-4.034a4.296 4.296 0 116.077 6.074L9.455 64.62a12.892 12.892 0 0017.178-17.187z" stroke="#6451E1" stroke-width="3.5" stroke-linecap="round" stroke-linejoin="round"/><path d="M22.069 28.146l-1.505-1.513A12.892 12.892 0 013.377 9.458l4.038 4.034a4.296 4.296 0 006.077-6.074L9.455 3.38a12.892 12.892 0 0117.178 17.187l1.28 1.28M45.648 39.573l1.782 1.782a12.892 12.892 0 0117.187 17.187l-4.038-4.034a4.296 4.296 0 00-6.074 6.074l4.034 4.038a12.892 12.892 0 01-17.172-17.187l-1.782-1.785" stroke="#6451E1" stroke-width="3.5" stroke-linecap="round" stroke-linejoin="round"/></svg>