<svg width="75" height="75" viewBox="0 0 75 75" fill="none" xmlns="http://www.w3.org/2000/svg">
<path d="M42.1877 70.3125L33.0314 62.9875C31.4635 61.741 30.7673 59.694 31.2502 57.75V57.75C31.6264 56.244 32.6661 54.9904 34.0765 54.342C35.4868 53.6937 37.1153 53.7207 38.5033 54.4156L42.1877 56.25V39.8438C42.1877 37.2549 44.2863 35.1562 46.8752 35.1562V35.1562C49.464 35.1562 51.5627 37.2549 51.5627 39.8438V49.2188L57.7908 50.2562C62.3113 51.0094 65.6248 54.9203 65.6252 59.5031V70.3125" stroke="#6451E1" stroke-width="3.5" stroke-linecap="round" stroke-linejoin="round"/>
<path d="M16.4033 18.75H39.8408" stroke="#6451E1" stroke-width="3.5" stroke-linecap="round" stroke-linejoin="round"/>
<path d="M16.4033 28.125H39.8408" stroke="#6451E1" stroke-width="3.5" stroke-linecap="round" stroke-linejoin="round"/>
<path d="M16.4033 37.5H28.1221" stroke="#6451E1" stroke-width="3.5" stroke-linecap="round" stroke-linejoin="round"/>
<path d="M23.4377 56.25H7.02832C4.43949 56.25 2.34082 54.1513 2.34082 51.5625V9.375C2.34082 6.78617 4.43949 4.6875 7.02832 4.6875H67.9658C70.5547 4.6875 72.6533 6.78617 72.6533 9.375V46.875" stroke="#6451E1" stroke-width="3.5" stroke-linecap="round" stroke-linejoin="round"/>
<path d="M58.5908 4.6875V32.8125" stroke="#6451E1" stroke-width="3.5" stroke-linecap="round" stroke-linejoin="round"/>
</svg>
