<svg width="92" height="73" viewBox="0 0 92 73" fill="none" xmlns="http://www.w3.org/2000/svg">
<path d="M10.7534 37.3928V7.92855C10.7534 4.96989 13.1814 2.57141 16.1765 2.57141H70.4073C73.4023 2.57141 75.8303 4.96989 75.8303 7.92855V15.0714" stroke="#6451E1" stroke-width="3.5" stroke-linecap="round" stroke-linejoin="round"/>
<path d="M47.8075 61.5H16.1765C12.5802 61.501 9.13081 60.0904 6.58747 57.5786C4.04413 55.0669 2.61523 51.6598 2.61523 48.1072H42.3845" stroke="#6451E1" stroke-width="3.5" stroke-linecap="round" stroke-linejoin="round"/>
<path fill-rule="evenodd" clip-rule="evenodd" d="M56.8462 29C56.8462 26.2386 59.0848 24 61.8462 24H84.3846C87.1461 24 89.3846 26.2386 89.3846 29V65.4286C89.3846 68.19 87.1461 70.4286 84.3846 70.4286H61.8462C59.0848 70.4286 56.8462 68.19 56.8462 65.4286V29Z" stroke="#6451E1" stroke-width="3.5" stroke-linecap="round" stroke-linejoin="round"/>
</svg>
