<svg width="68" height="68" viewBox="0 0 68 68" fill="none" xmlns="http://www.w3.org/2000/svg">
<path fill-rule="evenodd" clip-rule="evenodd" d="M26.6334 47.4323L47.4301 26.6328C52.3593 28.9851 58.236 27.9759 62.0981 24.1138C65.9602 20.2518 66.9694 14.3751 64.6171 9.44581L60.5796 13.4918C59.4944 14.5769 57.9128 15.0007 56.4305 14.6036C54.9482 14.2064 53.7903 13.0485 53.3931 11.5662C52.996 10.0839 53.4198 8.50228 54.5049 7.41714L58.5396 3.37964C53.6115 1.03746 47.7427 2.05133 43.8861 5.91111C40.0295 9.77089 39.0205 15.6406 41.3667 20.5666L20.5644 41.3661C15.6351 39.0138 9.75844 40.0231 5.89636 43.8851C2.03429 47.7472 1.02507 53.6239 3.37738 58.5532L7.41488 54.5185C9.09236 52.8402 11.8127 52.8396 13.491 54.5171C15.1692 56.1945 15.1699 58.9149 13.4924 60.5932L9.45489 64.6193C14.3834 66.9655 20.2554 65.9535 24.1142 62.0928C27.9729 58.2321 28.9821 52.3597 26.6334 47.4323Z" stroke="#6451E1" stroke-width="3.5" stroke-linecap="round" stroke-linejoin="round"/>
<path d="M22.0687 28.1464L20.5642 26.6334C15.6375 28.9808 9.76644 27.9718 5.90621 24.1141C2.04597 20.2564 1.03303 14.386 3.37723 9.4577L7.41473 13.4924C8.49987 14.578 10.0818 15.0023 11.5645 14.6053C13.0473 14.2084 14.2056 13.0506 14.6033 11.568C15.0009 10.0854 14.5774 8.50334 13.4922 7.4177L9.45473 3.3802C14.3833 1.03397 20.2552 2.04598 24.114 5.90668C27.9728 9.76737 28.9819 15.6398 26.6332 20.5672L27.9139 21.8479" stroke="#6451E1" stroke-width="3.5" stroke-linecap="round" stroke-linejoin="round"/>
<path d="M45.6478 39.5732L47.43 41.3554C52.3593 39.0031 58.2359 40.0123 62.098 43.8744C65.9601 47.7365 66.9693 53.6131 64.617 58.5424L60.5795 54.5077C58.902 52.8303 56.1823 52.8303 54.5048 54.5077C52.8273 56.1852 52.8273 58.9049 54.5048 60.5824L58.5395 64.6199C53.6115 66.9621 47.7426 65.9482 43.886 62.0885C40.0294 58.2287 39.0204 52.359 41.3666 47.4329L39.5845 45.6479" stroke="#6451E1" stroke-width="3.5" stroke-linecap="round" stroke-linejoin="round"/>
</svg>
