<svg width="80" height="75" viewBox="0 0 80 75" fill="none" xmlns="http://www.w3.org/2000/svg">
<path fill-rule="evenodd" clip-rule="evenodd" d="M2 3.83984C2 3.01142 2.67157 2.33984 3.5 2.33984H76.0593C76.8877 2.33984 77.5593 3.01142 77.5593 3.83984V56.9998C77.5593 57.8283 76.8877 58.4998 76.0593 58.4998H3.5C2.67157 58.4998 2 57.8283 2 56.9998V3.83984Z" stroke="#6451E1" stroke-width="3.5" stroke-linecap="round" stroke-linejoin="round"/>
<path fill-rule="evenodd" clip-rule="evenodd" d="M52.3729 72.54H27.1865L29.7052 58.5H49.8543L52.3729 72.54V72.54Z" stroke="#6451E1" stroke-width="3.5" stroke-linecap="round" stroke-linejoin="round"/>
<path d="M19.6304 72.5398H59.9287" stroke="#6451E1" stroke-width="3.5" stroke-linecap="round" stroke-linejoin="round"/>
<path d="M62.4473 23.3998V30.4198" stroke="#6451E1" stroke-width="3.5" stroke-linecap="round" stroke-linejoin="round"/>
<path d="M52.3729 27.5588V39.7799C48.9405 42.7142 44.4702 44.379 39.8066 44.4599C35.1283 44.3731 30.6433 42.7099 27.1865 39.7799V27.5588" stroke="#6451E1" stroke-width="3.5" stroke-linecap="round" stroke-linejoin="round"/>
<path fill-rule="evenodd" clip-rule="evenodd" d="M17.1118 23.3998L39.7796 32.7598L62.4474 23.3998L39.7796 14.0398L17.1118 23.3998Z" stroke="#6451E1" stroke-width="3.5" stroke-linecap="round" stroke-linejoin="round"/>
</svg>
