<svg width="30" height="30" fill="none" xmlns="http://www.w3.org/2000/svg"><g clip-path="url(#clip0)"><path d="M29.136 18.182C31.31 8.419 22.756-.45 12.712 1.253 7.26-2.131 0 1.693 0 8.181c0 1.508.416 2.92 1.14 4.138-2.019 9.785 6.604 18.527 16.639 16.708 7.093 3.751 14.932-3.73 11.357-10.845zm-9.547 5.887c-2.635 1.084-6.971 1.09-9.595-.284C6.253 21.791 5.588 17.3 8.815 17.3c2.433 0 1.662 2.837 4.119 3.993 1.127.521 3.551.575 4.96-.375 1.391-.932 1.264-2.397.507-3.097-2.003-1.85-7.737-1.114-10.358-4.353-1.14-1.405-1.354-3.884.046-5.681 2.44-3.14 9.6-3.332 12.678-.96 2.843 2.2 2.076 5.12-.218 5.12-2.759 0-1.309-3.61-5.763-3.61-3.229 0-4.498 2.296-2.225 3.413C15.644 13.28 23.5 12.77 23.5 18.753c-.006 2.49-1.533 4.346-3.91 5.316z" fill="#fff"/></g><defs><clipPath id="clip0"><path fill="#fff" d="M0 0h30v30H0z"/></clipPath></defs></svg>