<svg width="30" height="30" fill="none" xmlns="http://www.w3.org/2000/svg"><g clip-path="url(#clip0)" fill="#fff"><path d="M29.97 8.82c-.07-1.594-.327-2.69-.697-3.64a7.322 7.322 0 00-1.734-2.66A7.383 7.383 0 0024.884.791c-.955-.37-2.046-.627-3.64-.697C19.64.018 19.13 0 15.056 0c-4.073 0-4.583.018-6.183.088-1.594.07-2.69.328-3.64.697a7.32 7.32 0 00-2.66 1.735 7.386 7.386 0 00-1.73 2.655C.476 6.13.218 7.22.148 8.815.07 10.42.053 10.93.053 15.002c0 4.073.017 4.583.088 6.183.07 1.594.328 2.69.697 3.64a7.398 7.398 0 001.735 2.66 7.383 7.383 0 002.655 1.729c.955.369 2.045.627 3.64.697 1.599.07 2.109.088 6.182.088s4.583-.017 6.183-.088c1.594-.07 2.69-.328 3.639-.697a7.673 7.673 0 004.39-4.39c.369-.955.627-2.045.697-3.64.07-1.6.088-2.109.088-6.182s-.006-4.583-.076-6.183zm-2.7 12.249c-.065 1.465-.311 2.256-.517 2.783a4.976 4.976 0 01-2.848 2.849c-.527.205-1.324.45-2.784.515-1.582.07-2.057.088-6.06.088-4.002 0-4.483-.017-6.06-.088-1.464-.064-2.256-.31-2.783-.515a4.617 4.617 0 01-1.723-1.12 4.665 4.665 0 01-1.12-1.723c-.205-.527-.45-1.324-.515-2.784-.07-1.582-.088-2.057-.088-6.06 0-4.002.018-4.483.088-6.06.064-1.464.31-2.255.516-2.783A4.56 4.56 0 014.5 4.448a4.657 4.657 0 011.723-1.12c.527-.204 1.324-.45 2.784-.515 1.582-.07 2.057-.088 6.06-.088 4.008 0 4.483.018 6.06.088 1.464.065 2.256.31 2.783.516.65.24 1.242.62 1.723 1.119.498.487.879 1.073 1.12 1.723.204.528.45 1.325.515 2.784.07 1.582.088 2.057.088 6.06 0 4.002-.018 4.471-.088 6.054z"/><path d="M15.056 7.296a7.709 7.709 0 00-7.707 7.706 7.709 7.709 0 007.707 7.707 7.708 7.708 0 007.706-7.707 7.708 7.708 0 00-7.706-7.706zm0 12.706a5 5 0 11.001-10 5 5 0 01-.001 10zM24.866 6.992a1.8 1.8 0 11-3.599 0 1.8 1.8 0 013.6 0z"/></g><defs><clipPath id="clip0"><path fill="#fff" d="M0 0h30v30H0z"/></clipPath></defs></svg>