<svg width="40" height="30" viewBox="0 0 40 30" fill="none" xmlns="http://www.w3.org/2000/svg">
<path d="M39.6435 24.3567C39.5359 24.1767 38.8709 22.7316 35.6707 19.7614C32.3204 16.6512 32.7705 17.1562 36.8058 11.7783C39.2634 8.50305 40.246 6.5029 39.9385 5.64783C39.646 4.83277 37.8383 5.04779 37.8383 5.04779L31.8279 5.08279C31.8279 5.08279 31.3829 5.02279 31.0503 5.2203C30.7278 5.41532 30.5203 5.86535 30.5203 5.86535C30.5203 5.86535 29.5677 8.40054 28.2976 10.5557C25.6199 15.1035 24.5474 15.3436 24.1098 15.061C23.0922 14.4035 23.3473 12.4158 23.3473 11.0057C23.3473 6.59791 24.0148 4.76027 22.0447 4.28523C21.3896 4.12772 20.9096 4.02271 19.237 4.00521C17.0918 3.98271 15.2742 4.01271 14.2466 4.51525C13.5615 4.85028 13.034 5.59783 13.3565 5.64033C13.7541 5.69284 14.6541 5.88285 15.1317 6.5329C15.7492 7.37046 15.7267 9.2556 15.7267 9.2556C15.7267 9.2556 16.0817 14.4435 14.8991 15.0885C14.0866 15.5311 12.974 14.6285 10.5863 10.5007C9.36374 8.38804 8.43868 6.05037 8.43868 6.05037C8.43868 6.05037 8.26116 5.61533 7.94364 5.38281C7.55861 5.10029 7.01857 5.01029 7.01857 5.01029L1.30315 5.04529C1.30315 5.04529 0.445591 5.07029 0.130568 5.44282C-0.149453 5.77534 0.108066 6.46039 0.108066 6.46039C0.108066 6.46039 4.58339 16.9287 9.64876 22.2066C14.2966 27.0444 19.572 26.7269 19.572 26.7269H21.9622C21.9622 26.7269 22.6847 26.6469 23.0522 26.2494C23.3923 25.8843 23.3798 25.1993 23.3798 25.1993C23.3798 25.1993 23.3323 21.9916 24.8224 21.519C26.29 21.054 28.1751 24.6192 30.1728 25.9918C31.6829 27.0294 32.8305 26.8019 32.8305 26.8019L38.1734 26.7269C38.1734 26.7269 40.9686 26.5544 39.6435 24.3567Z" fill="white"/>
</svg>
