<svg width="27" height="30" fill="none" xmlns="http://www.w3.org/2000/svg"><path d="M17.913 14.25c0 .915-.695 1.665-1.574 1.665-.864 0-1.574-.75-1.574-1.665s.694-1.665 1.574-1.665c.88 0 1.574.75 1.574 1.665zm-7.206-1.665c-.879 0-1.573.75-1.573 1.665s.71 1.665 1.573 1.665c.88 0 1.574-.75 1.574-1.665.016-.915-.694-1.665-1.574-1.665zM27 3.09V30c-3.887-3.34-2.644-2.234-7.159-6.315l.818 2.775H3.163C1.419 26.46 0 25.08 0 23.37V3.09C0 1.38 1.42 0 3.163 0h20.674C25.581 0 27 1.38 27 3.09zm-4.397 14.22c0-4.83-2.222-8.745-2.222-8.745-2.222-1.62-4.335-1.575-4.335-1.575l-.216.24c2.623.78 3.841 1.905 3.841 1.905-3.665-1.953-7.97-1.953-11.525-.435-.57.255-.91.435-.91.435s1.28-1.185 4.058-1.965l-.155-.18s-2.113-.045-4.335 1.575c0 0-2.222 3.915-2.222 8.745 0 0 1.296 2.175 4.706 2.28 0 0 .57-.675 1.034-1.245-1.96-.57-2.7-1.77-2.7-1.77.227.155.601.355.632.375 2.604 1.418 6.304 1.882 9.628.525a8.927 8.927 0 001.774-.885s-.771 1.23-2.793 1.785c.463.57 1.019 1.215 1.019 1.215 3.41-.105 4.72-2.28 4.72-2.28z" fill="#fff"/></svg>