<svg width="27" height="30" viewBox="0 0 27 30" fill="none" xmlns="http://www.w3.org/2000/svg">
<path d="M17.9126 14.25C17.9126 15.165 17.2183 15.915 16.3389 15.915C15.4749 15.915 14.7651 15.165 14.7651 14.25C14.7651 13.335 15.4594 12.585 16.3389 12.585C17.2183 12.585 17.9126 13.335 17.9126 14.25ZM10.7074 12.585C9.828 12.585 9.13371 13.335 9.13371 14.25C9.13371 15.165 9.84343 15.915 10.7074 15.915C11.5869 15.915 12.2811 15.165 12.2811 14.25C12.2966 13.335 11.5869 12.585 10.7074 12.585ZM27 3.09V30C23.1131 26.6605 24.3562 27.7659 19.8411 23.685L20.6589 26.46H3.16286C1.41943 26.46 0 25.08 0 23.37V3.09C0 1.38 1.41943 0 3.16286 0H23.8371C25.5806 0 27 1.38 27 3.09ZM22.6029 17.31C22.6029 12.48 20.3811 8.565 20.3811 8.565C18.1594 6.945 16.0457 6.99 16.0457 6.99L15.8297 7.23C18.4526 8.01 19.6714 9.135 19.6714 9.135C16.0065 7.18213 11.7014 7.18178 8.14629 8.7C7.57543 8.955 7.236 9.135 7.236 9.135C7.236 9.135 8.51657 7.95 11.2937 7.17L11.1394 6.99C11.1394 6.99 9.02571 6.945 6.804 8.565C6.804 8.565 4.58229 12.48 4.58229 17.31C4.58229 17.31 5.87829 19.485 9.288 19.59C9.288 19.59 9.85886 18.915 10.3217 18.345C8.36229 17.775 7.62171 16.575 7.62171 16.575C7.84868 16.7295 8.22295 16.9297 8.25429 16.95C10.8585 18.3679 14.5576 18.8324 17.8817 17.475C18.4217 17.28 19.0234 16.995 19.656 16.59C19.656 16.59 18.8846 17.82 16.8634 18.375C17.3263 18.945 17.8817 19.59 17.8817 19.59C21.2914 19.485 22.6029 17.31 22.6029 17.31Z" fill="white"/>
</svg>
