<svg width="40" height="30" fill="none" xmlns="http://www.w3.org/2000/svg"><path d="M39.644 24.357c-.108-.18-.773-1.625-3.973-4.596-3.35-3.11-2.9-2.605 1.135-7.983 2.457-3.275 3.44-5.275 3.133-6.13-.293-.815-2.1-.6-2.1-.6l-6.011.035s-.445-.06-.778.137c-.322.195-.53.645-.53.645s-.952 2.536-2.222 4.69c-2.678 4.549-3.75 4.789-4.188 4.506-1.018-.658-.763-2.645-.763-4.055 0-4.408.668-6.246-1.302-6.72-.655-.158-1.135-.263-2.808-.28-2.145-.023-3.963.007-4.99.51-.685.334-1.213 1.082-.89 1.124.397.053 1.297.243 1.775.893.617.837.595 2.723.595 2.723s.355 5.188-.828 5.832c-.812.443-1.925-.46-4.313-4.587C9.364 8.388 8.44 6.05 8.44 6.05s-.178-.436-.495-.668c-.385-.283-.925-.373-.925-.373l-5.716.035s-.857.025-1.172.398C-.15 5.775.108 6.46.108 6.46s4.475 10.469 9.54 15.747c4.649 4.837 9.924 4.52 9.924 4.52h2.39s.723-.08 1.09-.478c.34-.365.328-1.05.328-1.05s-.048-3.207 1.442-3.68c1.468-.465 3.353 3.1 5.35 4.473 1.51 1.037 2.659.81 2.659.81l5.342-.075s2.796-.173 1.47-2.37z" fill="#fff"/></svg>