<svg width="30" height="30" viewBox="0 0 30 30" fill="none" xmlns="http://www.w3.org/2000/svg">
<g clip-path="url(#clip0)">
<path d="M29.1363 18.1818C31.3088 8.41928 22.7563 -0.449474 12.7125 1.25303C7.26 -2.13072 0 1.69303 0 8.18053C0 9.68928 0.41625 11.1018 1.14 12.3193C-0.87875 22.1043 7.74375 30.8455 17.7788 29.0268C24.8725 32.778 32.7113 25.2968 29.1363 18.1818V18.1818ZM19.5888 24.0693C16.9538 25.153 12.6175 25.1593 9.99375 23.7855C6.2525 21.7905 5.5875 17.2993 8.815 17.2993C11.2475 17.2993 10.4775 20.1355 12.9338 21.2918C14.0613 21.813 16.485 21.8668 17.8938 20.9168C19.285 19.9855 19.1575 18.5205 18.4013 17.8205C16.3975 15.9705 10.6638 16.7055 8.0425 13.4668C6.90375 12.0618 6.68875 9.58303 8.08875 7.78553C10.5288 4.64553 17.6888 4.45428 20.7675 6.82553C23.61 9.02553 22.8425 11.9455 20.5488 11.9455C17.79 11.9455 19.24 8.33553 14.7863 8.33553C11.5575 8.33553 10.2875 10.6318 12.5613 11.7493C15.6438 13.2805 23.4988 12.7693 23.4988 18.753C23.4925 21.243 21.9663 23.0993 19.5888 24.0693V24.0693Z" fill="white"/>
</g>
<defs>
<clipPath id="clip0">
<rect width="30" height="30" fill="white"/>
</clipPath>
</defs>
</svg>
