<svg width="25" height="25" fill="none" xmlns="http://www.w3.org/2000/svg"><g clip-path="url(#clip0)" fill="#fff"><path d="M24.976 7.35c-.059-1.328-.274-2.241-.581-3.033A6.102 6.102 0 0022.948 2.1 6.153 6.153 0 0020.736.66C19.94.351 19.032.136 17.704.077 16.365.015 15.94 0 12.546 0 9.152 0 8.727.015 7.394.073 6.066.132 5.152.347 4.361.654A6.1 6.1 0 002.144 2.1a6.155 6.155 0 00-1.44 2.212C.395 5.108.18 6.017.121 7.345.06 8.683.044 9.108.044 12.502c0 3.395.015 3.82.073 5.153.059 1.328.274 2.241.581 3.033.318.84.811 1.592 1.446 2.217a6.153 6.153 0 002.212 1.44c.796.308 1.705.523 3.033.582 1.333.058 1.758.073 5.153.073 3.394 0 3.819-.015 5.152-.073 1.328-.059 2.242-.274 3.033-.581a6.394 6.394 0 003.658-3.658c.307-.796.522-1.705.58-3.033.06-1.334.074-1.758.074-5.153 0-3.394-.005-3.819-.063-5.152zm-2.252 10.207c-.053 1.221-.259 1.88-.43 2.32a4.147 4.147 0 01-2.373 2.373c-.44.171-1.104.377-2.32.43-1.319.059-1.714.073-5.05.073-3.335 0-3.736-.014-5.05-.073-1.22-.053-1.88-.259-2.32-.43a3.846 3.846 0 01-1.435-.932 3.886 3.886 0 01-.933-1.436c-.17-.44-.376-1.104-.43-2.32-.058-1.319-.073-1.714-.073-5.05 0-3.335.015-3.736.073-5.05.054-1.22.26-1.88.43-2.32a3.8 3.8 0 01.938-1.435 3.88 3.88 0 011.436-.933c.44-.17 1.103-.376 2.32-.43 1.318-.058 1.714-.073 5.05-.073 3.34 0 3.735.015 5.049.073 1.221.054 1.88.26 2.32.43.542.2 1.035.518 1.436.933.415.405.732.893.933 1.436.17.44.375 1.103.43 2.32.058 1.318.072 1.714.072 5.05 0 3.335-.014 3.725-.073 5.044z"/><path d="M12.546 6.08a6.424 6.424 0 00-6.422 6.422 6.424 6.424 0 006.422 6.423 6.424 6.424 0 006.422-6.423 6.424 6.424 0 00-6.422-6.422zm0 10.588a4.167 4.167 0 11.002-8.333 4.167 4.167 0 01-.002 8.333zM20.722 5.826a1.5 1.5 0 11-2.999 0 1.5 1.5 0 012.999 0z"/></g><defs><clipPath id="clip0"><path fill="#fff" d="M0 0h25v25H0z"/></clipPath></defs></svg>