<svg width="30" height="18" fill="none" xmlns="http://www.w3.org/2000/svg"><path d="M29.733 15.709c-.081-.135-.58-1.219-2.98-3.447-2.513-2.332-2.175-1.954.851-5.987 1.844-2.456 2.58-3.957 2.35-4.598-.22-.611-1.575-.45-1.575-.45l-4.508.026s-.334-.045-.583.104c-.242.146-.398.483-.398.483s-.714 1.902-1.667 3.518c-2.008 3.41-2.813 3.591-3.14 3.38-.764-.494-.573-1.985-.573-3.042 0-3.306.501-4.685-.977-5.04-.49-.119-.85-.198-2.105-.21-1.61-.018-2.972.005-3.743.382-.514.251-.91.812-.668.844.299.039.974.181 1.332.669.463.628.446 2.042.446 2.042s.266 3.89-.62 4.375c-.61.332-1.445-.345-3.235-3.441-.917-1.585-1.611-3.338-1.611-3.338s-.133-.326-.371-.5c-.289-.213-.694-.28-.694-.28l-4.287.026s-.643.019-.88.298c-.21.25-.016.764-.016.764s3.357 7.85 7.156 11.81c3.486 3.628 7.442 3.39 7.442 3.39h1.793s.541-.06.817-.359c.255-.273.246-.787.246-.787s-.036-2.406 1.082-2.76c1.1-.35 2.514 2.325 4.013 3.354 1.132.778 1.993.608 1.993.608l4.007-.056s2.096-.13 1.103-1.778z" fill="#fff"/></svg>