<svg width="30" height="18" viewBox="0 0 30 18" fill="none" xmlns="http://www.w3.org/2000/svg">
<path d="M29.7326 15.7088C29.652 15.5738 29.1532 14.49 26.753 12.2623C24.2403 9.92965 24.5778 10.3084 27.6043 6.275C29.4476 3.81857 30.1845 2.31846 29.9539 1.67716C29.7345 1.06586 28.3787 1.22713 28.3787 1.22713L23.8709 1.25338C23.8709 1.25338 23.5371 1.20838 23.2877 1.35651C23.0459 1.50277 22.8902 1.8403 22.8902 1.8403C22.8902 1.8403 22.1758 3.74169 21.2232 5.35806C19.2149 8.76894 18.4105 8.94895 18.0824 8.73706C17.3192 8.2439 17.5104 6.75316 17.5104 5.69558C17.5104 2.38971 18.0111 1.01149 16.5335 0.655209C16.0422 0.537075 15.6822 0.458319 14.4277 0.445193C12.8189 0.428317 11.4556 0.450819 10.6849 0.827722C10.1712 1.07899 9.77551 1.63966 10.0174 1.67153C10.3155 1.71091 10.9906 1.85342 11.3487 2.34096C11.8119 2.96913 11.795 4.38299 11.795 4.38299C11.795 4.38299 12.0613 8.2739 11.1744 8.75769C10.5649 9.08959 9.7305 8.41266 7.93975 5.31681C7.02281 3.73231 6.32901 1.97906 6.32901 1.97906C6.32901 1.97906 6.19587 1.65278 5.95773 1.4784C5.66896 1.2665 5.26393 1.199 5.26393 1.199L0.977365 1.22525C0.977365 1.22525 0.334193 1.244 0.0979257 1.5234C-0.11209 1.77279 0.0810495 2.28658 0.0810495 2.28658C0.0810495 2.28658 3.43754 10.1378 7.23657 14.0962C10.7225 17.7246 14.679 17.4865 14.679 17.4865H16.4716C16.4716 17.4865 17.0135 17.4265 17.2892 17.1283C17.5442 16.8545 17.5348 16.3407 17.5348 16.3407C17.5348 16.3407 17.4992 13.9349 18.6168 13.5805C19.7175 13.2318 21.1313 15.9057 22.6296 16.9352C23.7622 17.7134 24.6228 17.5427 24.6228 17.5427L28.63 17.4865C28.63 17.4865 30.7264 17.3571 29.7326 15.7088Z" fill="white"/>
</svg>
