<svg width="22" height="25" fill="none" xmlns="http://www.w3.org/2000/svg"><path d="M14.595 11.875c0 .762-.565 1.387-1.282 1.387-.704 0-1.282-.625-1.282-1.387s.566-1.387 1.282-1.387c.717 0 1.282.625 1.282 1.387zm-5.87-1.387c-.717 0-1.283.625-1.283 1.387s.579 1.387 1.283 1.387c.716 0 1.282-.625 1.282-1.387.012-.762-.566-1.387-1.282-1.387zM22 2.575V25c-3.167-2.783-2.154-1.862-5.833-5.262l.666 2.312H2.577A2.576 2.576 0 010 19.475v-16.9A2.576 2.576 0 012.577 0h16.846C20.843 0 22 1.15 22 2.575zm-3.583 11.85c0-4.025-1.81-7.288-1.81-7.288-1.81-1.35-3.533-1.312-3.533-1.312l-.176.2c2.137.65 3.13 1.587 3.13 1.587-2.986-1.627-6.494-1.627-9.39-.362-.465.213-.742.362-.742.362s1.043-.987 3.306-1.637l-.125-.15s-1.723-.038-3.533 1.313c0 0-1.81 3.262-1.81 7.287 0 0 1.056 1.813 3.834 1.9 0 0 .465-.563.842-1.037-1.596-.476-2.2-1.476-2.2-1.476.185.13.49.296.516.313 2.122 1.181 5.136 1.569 7.844.438.44-.163.93-.4 1.446-.738 0 0-.629 1.025-2.275 1.488.377.474.83 1.012.83 1.012 2.778-.087 3.846-1.9 3.846-1.9z" fill="#fff"/></svg>